<mxfile host="app.diagrams.net" agent="Mozilla/5.0 (Windows NT 10.0; Win64; x64) AppleWebKit/537.36 (KHTML, like Gecko) Chrome/131.0.0.0 Safari/537.36" version="24.9.1">
  <diagram id="6a731a19-8d31-9384-78a2-239565b7b9f0" name="Page-1">
    <mxGraphModel dx="1167" dy="-101" grid="1" gridSize="10" guides="1" tooltips="1" connect="1" arrows="1" fold="1" page="1" pageScale="1" pageWidth="1169" pageHeight="827" background="none" math="0" shadow="0">
      <root>
        <mxCell id="0" />
        <mxCell id="1" parent="0" />
        <mxCell id="56" value="Flowchart Pendaftaran Program di VolunteerHub" style="strokeColor=#BAC8D3;fillColor=#23445D;fontSize=24;strokeWidth=2;fontFamily=Helvetica;html=1;fontColor=#FFFFFF;fontStyle=0;spacingBottom=8;spacingRight=0;spacingLeft=83;" parent="1" vertex="1">
          <mxGeometry x="154" y="850.5" width="2030" height="80" as="geometry" />
        </mxCell>
        <mxCell id="57" value="" style="strokeColor=#BAC8D3;fillColor=#23445D;fontSize=24;strokeWidth=2;horizontal=0;fontFamily=Helvetica;html=1;fontColor=#FFFFFF;fontStyle=0" parent="1" vertex="1">
          <mxGeometry x="154" y="930.5" width="50" height="300" as="geometry" />
        </mxCell>
        <mxCell id="58" value="" style="strokeColor=#BAC8D3;fillColor=#5d7f99;fontSize=19;strokeWidth=2;horizontal=0;fontFamily=Helvetica;html=1;labelBackgroundColor=none;fontColor=#FFFFFF;" parent="1" vertex="1">
          <mxGeometry x="204" y="930.5" width="40" height="100" as="geometry" />
        </mxCell>
        <mxCell id="60" value="" style="strokeColor=#BAC8D3;fillColor=#5d7f99;fontSize=19;strokeWidth=2;horizontal=0;fontFamily=Helvetica;html=1;labelBackgroundColor=none;fontColor=#FFFFFF;" parent="1" vertex="1">
          <mxGeometry x="204" y="1030.5" width="40" height="100" as="geometry" />
        </mxCell>
        <mxCell id="61" value="" style="strokeColor=#BAC8D3;fillColor=#5d7f99;fontSize=19;strokeWidth=2;horizontal=0;fontFamily=Helvetica;html=1;labelBackgroundColor=none;fontColor=#FFFFFF;" parent="1" vertex="1">
          <mxGeometry x="204" y="1130.5" width="40" height="100" as="geometry" />
        </mxCell>
        <mxCell id="62" value="" style="strokeColor=#BAC8D3;fillColor=#5d7f99;fontSize=19;strokeWidth=2;horizontal=0;fontFamily=Helvetica;html=1;labelBackgroundColor=none;fontColor=#FFFFFF;" parent="1" vertex="1">
          <mxGeometry x="204" y="1330.5" width="40" height="100" as="geometry" />
        </mxCell>
        <mxCell id="63" value="" style="strokeColor=#BAC8D3;fillColor=#5d7f99;fontSize=19;strokeWidth=2;horizontal=0;fontFamily=Helvetica;html=1;labelBackgroundColor=none;fontColor=#FFFFFF;" parent="1" vertex="1">
          <mxGeometry x="204" y="1230.5" width="40" height="100" as="geometry" />
        </mxCell>
        <mxCell id="64" value="" style="strokeColor=#BAC8D3;fillColor=#23445D;fontSize=24;strokeWidth=2;horizontal=0;fontFamily=Helvetica;html=1;fontColor=#FFFFFF;fontStyle=0" parent="1" vertex="1">
          <mxGeometry x="154" y="1230.5" width="50" height="200" as="geometry" />
        </mxCell>
        <mxCell id="65" value="" style="strokeColor=#BAC8D3;fillColor=#5d7f99;fontSize=19;strokeWidth=2;horizontal=0;fontFamily=Helvetica;html=1;labelBackgroundColor=none;fontColor=#FFFFFF;" parent="1" vertex="1">
          <mxGeometry x="204" y="1530.5" width="40" height="100" as="geometry" />
        </mxCell>
        <mxCell id="66" value="" style="strokeColor=#BAC8D3;fillColor=#5d7f99;fontSize=19;strokeWidth=2;horizontal=0;fontFamily=Helvetica;html=1;labelBackgroundColor=none;fontColor=#FFFFFF;" parent="1" vertex="1">
          <mxGeometry x="204" y="1430.5" width="40" height="100" as="geometry" />
        </mxCell>
        <mxCell id="67" value="" style="strokeColor=#BAC8D3;fillColor=#23445D;fontSize=24;strokeWidth=2;horizontal=0;fontFamily=Helvetica;html=1;fontColor=#FFFFFF;fontStyle=0" parent="1" vertex="1">
          <mxGeometry x="154" y="1430.5" width="50" height="200" as="geometry" />
        </mxCell>
        <mxCell id="68" value="" style="strokeColor=#FFFFFF;fillColor=#BAC8D3;fontSize=18;strokeWidth=2;fontFamily=Helvetica;html=1;opacity=60;" parent="1" vertex="1">
          <mxGeometry x="244" y="930.5" width="646.6666666666666" height="100" as="geometry" />
        </mxCell>
        <mxCell id="69" value="" style="strokeColor=#FFFFFF;fillColor=#BAC8D3;fontSize=18;strokeWidth=2;fontFamily=Helvetica;html=1;opacity=90;" parent="1" vertex="1">
          <mxGeometry x="244" y="1030.5" width="646.6666666666666" height="100" as="geometry" />
        </mxCell>
        <mxCell id="70" value="" style="strokeColor=#FFFFFF;fillColor=#BAC8D3;fontSize=18;strokeWidth=2;fontFamily=Helvetica;html=1;opacity=60;" parent="1" vertex="1">
          <mxGeometry x="244" y="1130.5" width="646.6666666666666" height="100" as="geometry" />
        </mxCell>
        <mxCell id="71" value="" style="strokeColor=#FFFFFF;fillColor=#BAC8D3;fontSize=18;strokeWidth=2;fontFamily=Helvetica;html=1;opacity=90;" parent="1" vertex="1">
          <mxGeometry x="244" y="1230.5" width="646.6666666666666" height="100" as="geometry" />
        </mxCell>
        <mxCell id="72" value="" style="strokeColor=#FFFFFF;fillColor=#BAC8D3;fontSize=18;strokeWidth=2;fontFamily=Helvetica;html=1;opacity=60;" parent="1" vertex="1">
          <mxGeometry x="244" y="1330.5" width="646.6666666666666" height="100" as="geometry" />
        </mxCell>
        <mxCell id="73" value="" style="strokeColor=#FFFFFF;fillColor=#BAC8D3;fontSize=18;strokeWidth=2;fontFamily=Helvetica;html=1;opacity=90;" parent="1" vertex="1">
          <mxGeometry x="244" y="1430.5" width="646.6666666666666" height="100" as="geometry" />
        </mxCell>
        <mxCell id="74" value="" style="strokeColor=#FFFFFF;fillColor=#BAC8D3;fontSize=18;strokeWidth=2;fontFamily=Helvetica;html=1;opacity=60;" parent="1" vertex="1">
          <mxGeometry x="244" y="1530.5" width="646.6666666666666" height="100" as="geometry" />
        </mxCell>
        <mxCell id="75" value="" style="strokeColor=#FFFFFF;fillColor=#BAC8D3;fontSize=18;strokeWidth=2;fontFamily=Helvetica;html=1;opacity=60;" parent="1" vertex="1">
          <mxGeometry x="890.6666666666666" y="930.5" width="647" height="100" as="geometry" />
        </mxCell>
        <mxCell id="76" value="" style="strokeColor=#FFFFFF;fillColor=#BAC8D3;fontSize=18;strokeWidth=2;fontFamily=Helvetica;html=1;opacity=90;" parent="1" vertex="1">
          <mxGeometry x="890.6666666666666" y="1030.5" width="646.6666666666666" height="100" as="geometry" />
        </mxCell>
        <mxCell id="77" value="" style="strokeColor=#FFFFFF;fillColor=#BAC8D3;fontSize=18;strokeWidth=2;fontFamily=Helvetica;html=1;opacity=60;" parent="1" vertex="1">
          <mxGeometry x="890.6666666666666" y="1130.5" width="646.6666666666666" height="100" as="geometry" />
        </mxCell>
        <mxCell id="78" value="" style="strokeColor=#FFFFFF;fillColor=#BAC8D3;fontSize=18;strokeWidth=2;fontFamily=Helvetica;html=1;opacity=90;" parent="1" vertex="1">
          <mxGeometry x="890.6666666666666" y="1230.5" width="646.6666666666666" height="100" as="geometry" />
        </mxCell>
        <mxCell id="79" value="" style="strokeColor=#FFFFFF;fillColor=#BAC8D3;fontSize=18;strokeWidth=2;fontFamily=Helvetica;html=1;opacity=60;" parent="1" vertex="1">
          <mxGeometry x="890.6666666666666" y="1330.5" width="646.6666666666666" height="100" as="geometry" />
        </mxCell>
        <mxCell id="80" value="" style="strokeColor=#FFFFFF;fillColor=#BAC8D3;fontSize=18;strokeWidth=2;fontFamily=Helvetica;html=1;opacity=90;" parent="1" vertex="1">
          <mxGeometry x="890.6666666666666" y="1430.5" width="646.6666666666666" height="100" as="geometry" />
        </mxCell>
        <mxCell id="81" value="" style="strokeColor=#FFFFFF;fillColor=#BAC8D3;fontSize=18;strokeWidth=2;fontFamily=Helvetica;html=1;opacity=60;fontStyle=4" parent="1" vertex="1">
          <mxGeometry x="890.6666666666666" y="1530.5" width="646.6666666666666" height="100" as="geometry" />
        </mxCell>
        <mxCell id="82" value="" style="strokeColor=#FFFFFF;fillColor=#BAC8D3;fontSize=18;strokeWidth=2;fontFamily=Helvetica;html=1;opacity=60;" parent="1" vertex="1">
          <mxGeometry x="1537.3333333333333" y="930.5" width="647" height="100" as="geometry" />
        </mxCell>
        <mxCell id="83" value="" style="strokeColor=#FFFFFF;fillColor=#BAC8D3;fontSize=18;strokeWidth=2;fontFamily=Helvetica;html=1;opacity=90;" parent="1" vertex="1">
          <mxGeometry x="1537.3333333333333" y="1030.5" width="646.6666666666666" height="100" as="geometry" />
        </mxCell>
        <mxCell id="84" value="" style="strokeColor=#FFFFFF;fillColor=#BAC8D3;fontSize=18;strokeWidth=2;fontFamily=Helvetica;html=1;opacity=60;" parent="1" vertex="1">
          <mxGeometry x="1537.3333333333333" y="1130.5" width="646.6666666666666" height="100" as="geometry" />
        </mxCell>
        <mxCell id="85" value="" style="strokeColor=#FFFFFF;fillColor=#BAC8D3;fontSize=18;strokeWidth=2;fontFamily=Helvetica;html=1;opacity=90;" parent="1" vertex="1">
          <mxGeometry x="1537.3333333333333" y="1230.5" width="646.6666666666666" height="100" as="geometry" />
        </mxCell>
        <mxCell id="86" value="" style="strokeColor=#FFFFFF;fillColor=#BAC8D3;fontSize=18;strokeWidth=2;fontFamily=Helvetica;html=1;opacity=60;" parent="1" vertex="1">
          <mxGeometry x="1537.3333333333333" y="1330.5" width="646.6666666666666" height="100" as="geometry" />
        </mxCell>
        <mxCell id="87" value="" style="strokeColor=#FFFFFF;fillColor=#BAC8D3;fontSize=18;strokeWidth=2;fontFamily=Helvetica;html=1;opacity=90;" parent="1" vertex="1">
          <mxGeometry x="1537.3333333333333" y="1430.5" width="646.6666666666666" height="100" as="geometry" />
        </mxCell>
        <mxCell id="88" value="" style="strokeColor=#FFFFFF;fillColor=#BAC8D3;fontSize=18;strokeWidth=2;fontFamily=Helvetica;html=1;opacity=60;fontStyle=4" parent="1" vertex="1">
          <mxGeometry x="1537.3333333333333" y="1530.5" width="646.6666666666666" height="100" as="geometry" />
        </mxCell>
        <mxCell id="ewCEh4V_vGF1PXvb0Eba-146" value="" style="edgeStyle=orthogonalEdgeStyle;rounded=0;orthogonalLoop=1;jettySize=auto;html=1;" parent="1" source="92" target="ewCEh4V_vGF1PXvb0Eba-142" edge="1">
          <mxGeometry relative="1" as="geometry" />
        </mxCell>
        <mxCell id="92" value="&lt;span style=&quot;color: rgb(255, 255, 255); font-size: 24px; text-wrap-mode: wrap;&quot;&gt;Home&lt;/span&gt;" style="rounded=0;fillColor=#23445D;strokeColor=none;strokeWidth=2;fontFamily=Helvetica;html=1;gradientColor=none;glass=0;" parent="1" vertex="1">
          <mxGeometry x="273.25" y="1153.25" width="133.5" height="54.5" as="geometry" />
        </mxCell>
        <mxCell id="ewCEh4V_vGF1PXvb0Eba-140" style="edgeStyle=orthogonalEdgeStyle;rounded=0;orthogonalLoop=1;jettySize=auto;html=1;entryX=0.5;entryY=0;entryDx=0;entryDy=0;" parent="1" source="ewCEh4V_vGF1PXvb0Eba-139" target="92" edge="1">
          <mxGeometry relative="1" as="geometry" />
        </mxCell>
        <mxCell id="ewCEh4V_vGF1PXvb0Eba-139" value="&lt;font color=&quot;#ffffff&quot; style=&quot;font-size: 24px;&quot;&gt;Start&lt;/font&gt;" style="ellipse;whiteSpace=wrap;html=1;fillColor=#23445D;" parent="1" vertex="1">
          <mxGeometry x="280" y="940.5" width="120" height="80" as="geometry" />
        </mxCell>
        <mxCell id="7yZdV7K0K-aqBI4NjuUf-93" value="" style="edgeStyle=orthogonalEdgeStyle;rounded=0;orthogonalLoop=1;jettySize=auto;html=1;" parent="1" source="ewCEh4V_vGF1PXvb0Eba-142" target="7yZdV7K0K-aqBI4NjuUf-92" edge="1">
          <mxGeometry relative="1" as="geometry" />
        </mxCell>
        <mxCell id="ewCEh4V_vGF1PXvb0Eba-142" value="&lt;span style=&quot;color: rgb(255, 255, 255); font-size: 24px; text-wrap-mode: wrap;&quot;&gt;Login&lt;/span&gt;" style="rounded=0;fillColor=#23445D;strokeColor=none;strokeWidth=2;fontFamily=Helvetica;html=1;gradientColor=none;glass=0;" parent="1" vertex="1">
          <mxGeometry x="520" y="1153.25" width="133.5" height="54.5" as="geometry" />
        </mxCell>
        <mxCell id="7yZdV7K0K-aqBI4NjuUf-96" value="" style="edgeStyle=orthogonalEdgeStyle;rounded=0;orthogonalLoop=1;jettySize=auto;html=1;" parent="1" source="7yZdV7K0K-aqBI4NjuUf-92" target="7yZdV7K0K-aqBI4NjuUf-95" edge="1">
          <mxGeometry relative="1" as="geometry" />
        </mxCell>
        <mxCell id="7yZdV7K0K-aqBI4NjuUf-101" value="" style="edgeStyle=orthogonalEdgeStyle;rounded=0;orthogonalLoop=1;jettySize=auto;html=1;" parent="1" source="7yZdV7K0K-aqBI4NjuUf-92" target="7yZdV7K0K-aqBI4NjuUf-100" edge="1">
          <mxGeometry relative="1" as="geometry" />
        </mxCell>
        <mxCell id="7yZdV7K0K-aqBI4NjuUf-92" value="&lt;span style=&quot;color: rgb(255, 255, 255); font-size: 18px;&quot;&gt;Punya&amp;nbsp;&lt;/span&gt;&lt;div&gt;&lt;span style=&quot;color: rgb(255, 255, 255); font-size: 18px;&quot;&gt;Akun&lt;/span&gt;&lt;/div&gt;" style="rhombus;whiteSpace=wrap;html=1;fillColor=#23445D;" parent="1" vertex="1">
          <mxGeometry x="740" y="1130.5" width="100" height="100" as="geometry" />
        </mxCell>
        <mxCell id="7yZdV7K0K-aqBI4NjuUf-99" value="" style="edgeStyle=orthogonalEdgeStyle;rounded=0;orthogonalLoop=1;jettySize=auto;html=1;" parent="1" source="7yZdV7K0K-aqBI4NjuUf-95" target="7yZdV7K0K-aqBI4NjuUf-98" edge="1">
          <mxGeometry relative="1" as="geometry" />
        </mxCell>
        <mxCell id="7yZdV7K0K-aqBI4NjuUf-95" value="&lt;span style=&quot;color: rgb(255, 255, 255); text-wrap-mode: wrap;&quot;&gt;&lt;font style=&quot;font-size: 20px;&quot;&gt;Registrasi&lt;/font&gt;&lt;/span&gt;" style="rounded=0;fillColor=#23445D;strokeColor=none;strokeWidth=2;fontFamily=Helvetica;html=1;gradientColor=none;glass=0;" parent="1" vertex="1">
          <mxGeometry x="723.25" y="1253.25" width="133.5" height="54.5" as="geometry" />
        </mxCell>
        <mxCell id="7yZdV7K0K-aqBI4NjuUf-97" value="&lt;font style=&quot;font-size: 16px;&quot;&gt;Tidak&lt;/font&gt;" style="text;strokeColor=none;align=center;fillColor=none;html=1;verticalAlign=middle;whiteSpace=wrap;rounded=0;" parent="1" vertex="1">
          <mxGeometry x="790" y="1226" width="60" height="30" as="geometry" />
        </mxCell>
        <mxCell id="7yZdV7K0K-aqBI4NjuUf-98" value="&lt;div style=&quot;&quot;&gt;&lt;br&gt;&lt;/div&gt;" style="shape=parallelogram;perimeter=parallelogramPerimeter;whiteSpace=wrap;html=1;fixedSize=1;fillColor=#23445D;align=center;" parent="1" vertex="1">
          <mxGeometry x="715" y="1347.75" width="150" height="60" as="geometry" />
        </mxCell>
        <mxCell id="7yZdV7K0K-aqBI4NjuUf-104" value="" style="edgeStyle=orthogonalEdgeStyle;rounded=0;orthogonalLoop=1;jettySize=auto;html=1;" parent="1" source="7yZdV7K0K-aqBI4NjuUf-100" target="7yZdV7K0K-aqBI4NjuUf-103" edge="1">
          <mxGeometry relative="1" as="geometry" />
        </mxCell>
        <mxCell id="7yZdV7K0K-aqBI4NjuUf-100" value="&lt;div style=&quot;&quot;&gt;&lt;span style=&quot;color: rgb(255, 255, 255); background-color: initial;&quot;&gt;&lt;font style=&quot;font-size: 16px;&quot;&gt;Masukkan Email dan Password&lt;/font&gt;&lt;/span&gt;&lt;/div&gt;" style="shape=parallelogram;perimeter=parallelogramPerimeter;whiteSpace=wrap;html=1;fixedSize=1;fillColor=#23445D;align=center;" parent="1" vertex="1">
          <mxGeometry x="910" y="1150.5" width="150" height="60" as="geometry" />
        </mxCell>
        <mxCell id="7yZdV7K0K-aqBI4NjuUf-102" value="&lt;font style=&quot;font-size: 16px;&quot;&gt;Iya&lt;/font&gt;" style="text;strokeColor=none;align=center;fillColor=none;html=1;verticalAlign=middle;whiteSpace=wrap;rounded=0;" parent="1" vertex="1">
          <mxGeometry x="830.67" y="1150.5" width="60" height="30" as="geometry" />
        </mxCell>
        <mxCell id="7yZdV7K0K-aqBI4NjuUf-103" value="" style="rounded=0;fillColor=#23445D;strokeColor=none;strokeWidth=2;fontFamily=Helvetica;html=1;gradientColor=none;glass=0;" parent="1" vertex="1">
          <mxGeometry x="1130" y="1153.25" width="133.5" height="54.5" as="geometry" />
        </mxCell>
        <mxCell id="7yZdV7K0K-aqBI4NjuUf-109" value="" style="edgeStyle=orthogonalEdgeStyle;rounded=0;orthogonalLoop=1;jettySize=auto;html=1;" parent="1" source="7yZdV7K0K-aqBI4NjuUf-106" target="7yZdV7K0K-aqBI4NjuUf-108" edge="1">
          <mxGeometry relative="1" as="geometry" />
        </mxCell>
        <mxCell id="7yZdV7K0K-aqBI4NjuUf-106" value="&lt;font style=&quot;font-size: 14px;&quot; color=&quot;#ffffff&quot;&gt;Daftar Rekomendasi Program Relawan&lt;/font&gt;" style="text;strokeColor=none;align=center;fillColor=none;html=1;verticalAlign=middle;whiteSpace=wrap;rounded=0;fontSize=14;" parent="1" vertex="1">
          <mxGeometry x="1130.25" y="1165.5" width="133.25" height="30" as="geometry" />
        </mxCell>
        <mxCell id="7yZdV7K0K-aqBI4NjuUf-112" value="" style="edgeStyle=orthogonalEdgeStyle;rounded=0;orthogonalLoop=1;jettySize=auto;html=1;" parent="1" source="7yZdV7K0K-aqBI4NjuUf-108" target="7yZdV7K0K-aqBI4NjuUf-110" edge="1">
          <mxGeometry relative="1" as="geometry" />
        </mxCell>
        <mxCell id="7yZdV7K0K-aqBI4NjuUf-120" value="" style="edgeStyle=orthogonalEdgeStyle;rounded=0;orthogonalLoop=1;jettySize=auto;html=1;" parent="1" source="7yZdV7K0K-aqBI4NjuUf-108" target="7yZdV7K0K-aqBI4NjuUf-119" edge="1">
          <mxGeometry relative="1" as="geometry" />
        </mxCell>
        <mxCell id="7yZdV7K0K-aqBI4NjuUf-108" value="&lt;font style=&quot;font-size: 16px;&quot; color=&quot;#ffffff&quot;&gt;Program Cocok&lt;/font&gt;" style="rhombus;whiteSpace=wrap;html=1;fillColor=#23445D;" parent="1" vertex="1">
          <mxGeometry x="1320" y="1130.5" width="100" height="100" as="geometry" />
        </mxCell>
        <mxCell id="7yZdV7K0K-aqBI4NjuUf-116" value="" style="edgeStyle=orthogonalEdgeStyle;rounded=0;orthogonalLoop=1;jettySize=auto;html=1;" parent="1" source="7yZdV7K0K-aqBI4NjuUf-110" target="7yZdV7K0K-aqBI4NjuUf-115" edge="1">
          <mxGeometry relative="1" as="geometry" />
        </mxCell>
        <mxCell id="7yZdV7K0K-aqBI4NjuUf-110" value="&lt;span style=&quot;color: rgb(255, 255, 255); text-wrap-mode: wrap;&quot;&gt;&lt;font style=&quot;font-size: 20px;&quot;&gt;Search Bar&lt;/font&gt;&lt;/span&gt;" style="rounded=0;fillColor=#23445D;strokeColor=none;strokeWidth=2;fontFamily=Helvetica;html=1;gradientColor=none;glass=0;" parent="1" vertex="1">
          <mxGeometry x="1480" y="1153.25" width="133.5" height="54.5" as="geometry" />
        </mxCell>
        <mxCell id="7yZdV7K0K-aqBI4NjuUf-111" value="&lt;font style=&quot;font-size: 16px;&quot;&gt;Tidak&lt;/font&gt;" style="text;strokeColor=none;align=center;fillColor=none;html=1;verticalAlign=middle;whiteSpace=wrap;rounded=0;" parent="1" vertex="1">
          <mxGeometry x="1410" y="1153.25" width="60" height="30" as="geometry" />
        </mxCell>
        <mxCell id="7yZdV7K0K-aqBI4NjuUf-113" value="&lt;span style=&quot;color: rgb(255, 255, 255);&quot;&gt;&lt;font style=&quot;font-size: 10px;&quot;&gt;Masukkan Nama,&amp;nbsp; Email, Password, Lokasi, dan Bidang yang Diminati&lt;/font&gt;&lt;/span&gt;" style="text;strokeColor=none;align=center;fillColor=none;html=1;verticalAlign=middle;whiteSpace=wrap;rounded=0;fontSize=14;" parent="1" vertex="1">
          <mxGeometry x="726.63" y="1362.75" width="126.75" height="30" as="geometry" />
        </mxCell>
        <mxCell id="7yZdV7K0K-aqBI4NjuUf-114" style="edgeStyle=orthogonalEdgeStyle;rounded=0;orthogonalLoop=1;jettySize=auto;html=1;exitX=0.5;exitY=1;exitDx=0;exitDy=0;" parent="1" source="7yZdV7K0K-aqBI4NjuUf-113" target="7yZdV7K0K-aqBI4NjuUf-113" edge="1">
          <mxGeometry relative="1" as="geometry" />
        </mxCell>
        <mxCell id="7yZdV7K0K-aqBI4NjuUf-117" style="edgeStyle=orthogonalEdgeStyle;rounded=0;orthogonalLoop=1;jettySize=auto;html=1;exitX=0.5;exitY=0;exitDx=0;exitDy=0;entryX=0.5;entryY=0;entryDx=0;entryDy=0;" parent="1" source="7yZdV7K0K-aqBI4NjuUf-115" target="7yZdV7K0K-aqBI4NjuUf-108" edge="1">
          <mxGeometry relative="1" as="geometry">
            <Array as="points">
              <mxPoint x="1745" y="1080" />
              <mxPoint x="1370" y="1080" />
            </Array>
          </mxGeometry>
        </mxCell>
        <mxCell id="7yZdV7K0K-aqBI4NjuUf-115" value="&lt;div style=&quot;&quot;&gt;&lt;span style=&quot;color: rgb(255, 255, 255); background-color: initial;&quot;&gt;&lt;font style=&quot;font-size: 16px;&quot;&gt;Masukkan Kata Kunci yang Diinginkan&lt;/font&gt;&lt;/span&gt;&lt;/div&gt;" style="shape=parallelogram;perimeter=parallelogramPerimeter;whiteSpace=wrap;html=1;fixedSize=1;fillColor=#23445D;align=center;" parent="1" vertex="1">
          <mxGeometry x="1670" y="1150.5" width="150" height="60" as="geometry" />
        </mxCell>
        <mxCell id="7yZdV7K0K-aqBI4NjuUf-129" value="" style="edgeStyle=orthogonalEdgeStyle;rounded=0;orthogonalLoop=1;jettySize=auto;html=1;" parent="1" source="7yZdV7K0K-aqBI4NjuUf-119" target="7yZdV7K0K-aqBI4NjuUf-128" edge="1">
          <mxGeometry relative="1" as="geometry" />
        </mxCell>
        <mxCell id="3fs14xKICf8o1LNLICnL-94" value="" style="edgeStyle=none;curved=1;rounded=0;orthogonalLoop=1;jettySize=auto;html=1;fontSize=12;startSize=8;endSize=8;" parent="1" source="7yZdV7K0K-aqBI4NjuUf-119" target="3fs14xKICf8o1LNLICnL-93" edge="1">
          <mxGeometry relative="1" as="geometry" />
        </mxCell>
        <mxCell id="7yZdV7K0K-aqBI4NjuUf-119" value="&lt;span style=&quot;color: rgb(255, 255, 255); text-wrap-mode: wrap;&quot;&gt;&lt;font style=&quot;font-size: 18px;&quot;&gt;Daftar Program&lt;/font&gt;&lt;/span&gt;" style="rounded=0;fillColor=#23445D;strokeColor=none;strokeWidth=2;fontFamily=Helvetica;html=1;gradientColor=none;glass=0;" parent="1" vertex="1">
          <mxGeometry x="1303.25" y="1253.25" width="133.5" height="54.5" as="geometry" />
        </mxCell>
        <mxCell id="7yZdV7K0K-aqBI4NjuUf-121" value="&lt;font style=&quot;font-size: 16px;&quot;&gt;Iya&lt;/font&gt;" style="text;strokeColor=none;align=center;fillColor=none;html=1;verticalAlign=middle;whiteSpace=wrap;rounded=0;" parent="1" vertex="1">
          <mxGeometry x="1360" y="1226" width="60" height="30" as="geometry" />
        </mxCell>
        <mxCell id="7yZdV7K0K-aqBI4NjuUf-139" value="" style="edgeStyle=orthogonalEdgeStyle;rounded=0;orthogonalLoop=1;jettySize=auto;html=1;" parent="1" source="7yZdV7K0K-aqBI4NjuUf-124" edge="1">
          <mxGeometry relative="1" as="geometry">
            <mxPoint x="1730" y="1470.4999999999998" as="targetPoint" />
          </mxGeometry>
        </mxCell>
        <mxCell id="7yZdV7K0K-aqBI4NjuUf-124" value="&lt;font color=&quot;#ffffff&quot;&gt;&lt;span style=&quot;&quot;&gt;Database User&lt;/span&gt;&lt;/font&gt;" style="shape=cylinder3;whiteSpace=wrap;html=1;boundedLbl=1;backgroundOutline=1;size=15;fillColor=#23445D;" parent="1" vertex="1">
          <mxGeometry x="1700" y="1353.25" width="60" height="80" as="geometry" />
        </mxCell>
        <mxCell id="7yZdV7K0K-aqBI4NjuUf-131" value="" style="edgeStyle=orthogonalEdgeStyle;rounded=0;orthogonalLoop=1;jettySize=auto;html=1;" parent="1" source="7yZdV7K0K-aqBI4NjuUf-128" target="7yZdV7K0K-aqBI4NjuUf-130" edge="1">
          <mxGeometry relative="1" as="geometry" />
        </mxCell>
        <mxCell id="7yZdV7K0K-aqBI4NjuUf-128" value="&lt;span style=&quot;color: rgb(255, 255, 255); text-wrap-mode: wrap;&quot;&gt;&lt;font style=&quot;font-size: 18px;&quot;&gt;Flask&lt;/font&gt;&lt;/span&gt;" style="rounded=0;fillColor=#23445D;strokeColor=none;strokeWidth=2;fontFamily=Helvetica;html=1;gradientColor=none;glass=0;" parent="1" vertex="1">
          <mxGeometry x="1480" y="1253.25" width="133.5" height="54.5" as="geometry" />
        </mxCell>
        <mxCell id="7yZdV7K0K-aqBI4NjuUf-132" value="" style="edgeStyle=orthogonalEdgeStyle;rounded=0;orthogonalLoop=1;jettySize=auto;html=1;" parent="1" source="7yZdV7K0K-aqBI4NjuUf-130" target="7yZdV7K0K-aqBI4NjuUf-124" edge="1">
          <mxGeometry relative="1" as="geometry" />
        </mxCell>
        <mxCell id="7yZdV7K0K-aqBI4NjuUf-136" style="edgeStyle=orthogonalEdgeStyle;rounded=0;orthogonalLoop=1;jettySize=auto;html=1;exitX=1;exitY=0.5;exitDx=0;exitDy=0;entryX=0.5;entryY=0;entryDx=0;entryDy=0;" parent="1" source="7yZdV7K0K-aqBI4NjuUf-130" target="7yZdV7K0K-aqBI4NjuUf-103" edge="1">
          <mxGeometry relative="1" as="geometry">
            <Array as="points">
              <mxPoint x="1860" y="1281" />
              <mxPoint x="1860" y="1050" />
              <mxPoint x="1197" y="1050" />
            </Array>
          </mxGeometry>
        </mxCell>
        <mxCell id="7yZdV7K0K-aqBI4NjuUf-130" value="&lt;font style=&quot;font-size: 16px;&quot; color=&quot;#ffffff&quot;&gt;Pernah Didaftar&lt;/font&gt;" style="rhombus;whiteSpace=wrap;html=1;fillColor=#23445D;" parent="1" vertex="1">
          <mxGeometry x="1680" y="1230.5" width="100" height="100" as="geometry" />
        </mxCell>
        <mxCell id="7yZdV7K0K-aqBI4NjuUf-133" value="&lt;font style=&quot;font-size: 16px;&quot;&gt;Tidak&lt;/font&gt;" style="text;strokeColor=none;align=center;fillColor=none;html=1;verticalAlign=middle;whiteSpace=wrap;rounded=0;" parent="1" vertex="1">
          <mxGeometry x="1730" y="1323.25" width="60" height="30" as="geometry" />
        </mxCell>
        <mxCell id="7yZdV7K0K-aqBI4NjuUf-137" value="&lt;font style=&quot;font-size: 16px;&quot;&gt;Iya&lt;/font&gt;" style="text;strokeColor=none;align=center;fillColor=none;html=1;verticalAlign=middle;whiteSpace=wrap;rounded=0;" parent="1" vertex="1">
          <mxGeometry x="1770" y="1250" width="60" height="30" as="geometry" />
        </mxCell>
        <mxCell id="3fs14xKICf8o1LNLICnL-93" value="&lt;font color=&quot;#ffffff&quot; style=&quot;font-size: 24px;&quot;&gt;End&lt;/font&gt;" style="ellipse;whiteSpace=wrap;html=1;fillColor=#23445D;" parent="1" vertex="1">
          <mxGeometry x="1310" y="1337.75" width="120" height="80" as="geometry" />
        </mxCell>
        <mxCell id="WxBUptNGG_2keh1sN1wm-101" value="" style="edgeStyle=none;curved=1;rounded=0;orthogonalLoop=1;jettySize=auto;html=1;fontSize=12;startSize=8;endSize=8;" edge="1" parent="1" source="WxBUptNGG_2keh1sN1wm-92" target="WxBUptNGG_2keh1sN1wm-96">
          <mxGeometry relative="1" as="geometry" />
        </mxCell>
        <mxCell id="WxBUptNGG_2keh1sN1wm-92" value="" style="rounded=0;fillColor=#23445D;strokeColor=none;strokeWidth=2;fontFamily=Helvetica;html=1;gradientColor=none;glass=0;" vertex="1" parent="1">
          <mxGeometry x="1663.25" y="1470" width="133.5" height="54.5" as="geometry" />
        </mxCell>
        <mxCell id="WxBUptNGG_2keh1sN1wm-93" value="&lt;font style=&quot;font-size: 12px;&quot; color=&quot;#ffffff&quot;&gt;Deskripsi Kegiatan Dikonvert Menjadi Vektor&lt;/font&gt;" style="text;strokeColor=none;align=center;fillColor=none;html=1;verticalAlign=middle;whiteSpace=wrap;rounded=0;fontSize=16;" vertex="1" parent="1">
          <mxGeometry x="1665" y="1482.25" width="130" height="30" as="geometry" />
        </mxCell>
        <mxCell id="WxBUptNGG_2keh1sN1wm-96" value="" style="rounded=0;fillColor=#23445D;strokeColor=none;strokeWidth=2;fontFamily=Helvetica;html=1;gradientColor=none;glass=0;" vertex="1" parent="1">
          <mxGeometry x="1663.25" y="1553.25" width="133.5" height="56.75" as="geometry" />
        </mxCell>
        <mxCell id="WxBUptNGG_2keh1sN1wm-95" value="&lt;font style=&quot;font-size: 11px;&quot; color=&quot;#ffffff&quot;&gt;Vektor Digunakan untuk Menghitung Cosine Similarities&lt;/font&gt;" style="text;strokeColor=none;align=center;fillColor=none;html=1;verticalAlign=middle;whiteSpace=wrap;rounded=0;fontSize=16;" vertex="1" parent="1">
          <mxGeometry x="1663.25" y="1563.25" width="133.25" height="34.5" as="geometry" />
        </mxCell>
        <mxCell id="WxBUptNGG_2keh1sN1wm-97" style="edgeStyle=none;curved=1;rounded=0;orthogonalLoop=1;jettySize=auto;html=1;exitX=0.75;exitY=1;exitDx=0;exitDy=0;fontSize=12;startSize=8;endSize=8;" edge="1" parent="1" source="WxBUptNGG_2keh1sN1wm-95" target="WxBUptNGG_2keh1sN1wm-95">
          <mxGeometry relative="1" as="geometry" />
        </mxCell>
      </root>
    </mxGraphModel>
  </diagram>
</mxfile>
